<svg width="32" height="32" viewBox="0 0 24 24" fill="none" xmlns="http://www.w3.org/2000/svg">
  <path d="M21 16.0001V7.99992C20.9996 7.64917 20.9071 7.30467 20.7315 7.00137C20.556 6.69807 20.3033 6.44519 20 6.26992L13 2.26992C12.696 2.09419 12.3511 2.002 12 2.002C11.6489 2.002 11.304 2.09419 11 2.26992L4 6.26992C3.69671 6.44519 3.44404 6.69807 3.26846 7.00137C3.09289 7.30467 3.00037 7.64917 3 7.99992V16.0001C3.00037 16.3508 3.09289 16.6954 3.26846 16.9987C3.44404 17.302 3.69671 17.5548 4 17.7301L11 21.7301C11.304 21.9058 11.6489 21.998 12 21.998C12.3511 21.998 12.696 21.9058 13 21.7301L20 17.7301C20.3033 17.5548 20.556 17.302 20.7315 16.9987C20.9071 16.6954 20.9996 16.3508 21 16.0001Z" stroke="#3c79d9" stroke-width="2.5" stroke-linecap="round" stroke-linejoin="round"/>
  <path d="M12 22.0001V12.0001L21.36 6.84009" stroke="#3c79d9" stroke-width="2.5" stroke-linecap="round" stroke-linejoin="round"/>
  <path d="M3 6.84009L12 12.0001" stroke="#3c79d9" stroke-width="2.5" stroke-linecap="round" stroke-linejoin="round"/>
</svg>
